<svg xmlns="http://www.w3.org/2000/svg" viewBox="0 0 586 382" width="100%" role="img" aria-label="Cascade"><defs><linearGradient id="g0" x1="0" y1="0" x2="1" y2="1"><stop offset="0" stop-color="#ffffff" stop-opacity=".55"/><stop offset=".34" stop-color="#F0A63C" stop-opacity=".92"/><stop offset="1" stop-color="#F0A63C" stop-opacity=".62"/></linearGradient><linearGradient id="g1" x1="0" y1="0" x2="1" y2="1"><stop offset="0" stop-color="#ffffff" stop-opacity=".55"/><stop offset=".34" stop-color="#C24DF0" stop-opacity=".92"/><stop offset="1" stop-color="#C24DF0" stop-opacity=".62"/></linearGradient><linearGradient id="g2" x1="0" y1="0" x2="1" y2="1"><stop offset="0" stop-color="#ffffff" stop-opacity=".55"/><stop offset=".34" stop-color="#7C5CFF" stop-opacity=".92"/><stop offset="1" stop-color="#7C5CFF" stop-opacity=".62"/></linearGradient><linearGradient id="g3" x1="0" y1="0" x2="1" y2="1"><stop offset="0" stop-color="#ffffff" stop-opacity=".55"/><stop offset=".34" stop-color="#4C7DFF" stop-opacity=".92"/><stop offset="1" stop-color="#4C7DFF" stop-opacity=".62"/></linearGradient><linearGradient id="g4" x1="0" y1="0" x2="1" y2="1"><stop offset="0" stop-color="#ffffff" stop-opacity=".55"/><stop offset=".34" stop-color="#22D3EE" stop-opacity=".92"/><stop offset="1" stop-color="#22D3EE" stop-opacity=".62"/></linearGradient><linearGradient id="g5" x1="0" y1="0" x2="1" y2="1"><stop offset="0" stop-color="#ffffff" stop-opacity=".55"/><stop offset=".34" stop-color="#31D67D" stop-opacity=".92"/><stop offset="1" stop-color="#31D67D" stop-opacity=".62"/></linearGradient></defs><g><rect x="52" y="46" width="218" height="123" rx="14" fill="url(#g0)" stroke="#F0A63C" stroke-width="3" style="filter:drop-shadow(0 0 7px #F0A63Cbb) drop-shadow(0 3px 10px #F0A63C55)"/><rect x="54" y="48" width="214" height="119" rx="12" fill="none" stroke="#ffffff" stroke-opacity=".30" stroke-width="1.2"/></g><g><rect x="106" y="83" width="218" height="123" rx="14" fill="url(#g1)" stroke="#C24DF0" stroke-width="3" style="filter:drop-shadow(0 0 7px #C24DF0bb) drop-shadow(0 3px 10px #C24DF055)"/><rect x="108" y="85" width="214" height="119" rx="12" fill="none" stroke="#ffffff" stroke-opacity=".30" stroke-width="1.2"/></g><g><rect x="160" y="120" width="218" height="123" rx="14" fill="url(#g2)" stroke="#7C5CFF" stroke-width="3" style="filter:drop-shadow(0 0 7px #7C5CFFbb) drop-shadow(0 3px 10px #7C5CFF55)"/><rect x="162" y="122" width="214" height="119" rx="12" fill="none" stroke="#ffffff" stroke-opacity=".30" stroke-width="1.2"/></g><g><rect x="214" y="157" width="218" height="123" rx="14" fill="url(#g3)" stroke="#4C7DFF" stroke-width="3" style="filter:drop-shadow(0 0 7px #4C7DFFbb) drop-shadow(0 3px 10px #4C7DFF55)"/><rect x="216" y="159" width="214" height="119" rx="12" fill="none" stroke="#ffffff" stroke-opacity=".30" stroke-width="1.2"/></g><g><rect x="268" y="194" width="218" height="123" rx="14" fill="url(#g4)" stroke="#22D3EE" stroke-width="3" style="filter:drop-shadow(0 0 7px #22D3EEbb) drop-shadow(0 3px 10px #22D3EE55)"/><rect x="270" y="196" width="214" height="119" rx="12" fill="none" stroke="#ffffff" stroke-opacity=".30" stroke-width="1.2"/></g><g><rect x="322" y="231" width="218" height="123" rx="14" fill="url(#g5)" stroke="#31D67D" stroke-width="3" style="filter:drop-shadow(0 0 7px #31D67Dbb) drop-shadow(0 3px 10px #31D67D55)"/><rect x="324" y="233" width="214" height="119" rx="12" fill="none" stroke="#ffffff" stroke-opacity=".30" stroke-width="1.2"/><path d="M 411.0 265.5 L 411.0 319.5 L 461.0 292.5 Z" fill="#ffffff" style="filter:drop-shadow(0 0 6px #ffffffaa)"/></g></svg>